HIERARCHY
ROOT Hips
{
 OFFSET 0.000000 0.000000 0.000000
 CHANNELS 6 Xposition Yposition Zposition Yrotation Xrotation Zrotation
 JOINT Chest
 {
  OFFSET 0.000000 9.585900 0.002600
  CHANNELS 3 Yrotation Xrotation Zrotation
  JOINT Chest2
  {
   OFFSET 0.000000 9.601200 -0.005300
   CHANNELS 3 Yrotation Xrotation Zrotation
   JOINT Chest3
   {
    OFFSET 0.000000 9.561800 0.000000
    CHANNELS 3 Yrotation Xrotation Zrotation
    JOINT Chest4
    {
     OFFSET 0.000000 9.552100 0.000000
     CHANNELS 3 Yrotation Xrotation Zrotation
     JOINT Neck
     {
      OFFSET 0.000000 14.453000 0.000000
      CHANNELS 3 Yrotation Xrotation Zrotation
      JOINT Head
      {
       OFFSET 0.000000 8.936500 -0.011300
       CHANNELS 3 Yrotation Xrotation Zrotation
       End Site
       {
        OFFSET 0.000000 17.073600 -0.006000
       }
      }
     }
     JOINT RightCollar
     {
      OFFSET -2.921100 9.558500 0.000000
      CHANNELS 3 Yrotation Xrotation Zrotation
      JOINT RightShoulder
      {
       OFFSET -13.519700 0.000000 0.000000
       CHANNELS 3 Yrotation Xrotation Zrotation
       JOINT RightElbow
       {
        OFFSET 0.000000 -29.696600 0.000000
        CHANNELS 3 Yrotation Xrotation Zrotation
        JOINT RightWrist
        {
         OFFSET 0.000000 -24.004700 0.000000
         CHANNELS 3 Yrotation Xrotation Zrotation
         End Site
         {
          OFFSET 0.000000 -17.728500 0.000000
         }
        }
       }
      }
     }
     JOINT LeftCollar
     {
      OFFSET 2.921100 9.558500 0.000000
      CHANNELS 3 Yrotation Xrotation Zrotation
      JOINT LeftShoulder
      {
       OFFSET 13.519700 0.000000 0.000000
       CHANNELS 3 Yrotation Xrotation Zrotation
       JOINT LeftElbow
       {
        OFFSET 0.000000 -29.696600 0.000000
        CHANNELS 3 Yrotation Xrotation Zrotation
        JOINT LeftWrist
        {
         OFFSET 0.000000 -24.004700 0.000000
         CHANNELS 3 Yrotation Xrotation Zrotation
         End Site
         {
          OFFSET 0.000000 -17.728500 0.000000
         }
        }
       }
      }
     }
    }
   }
  }
 }
 JOINT RightHip
 {
  OFFSET -7.771700 -0.012900 -0.001300
  CHANNELS 3 Yrotation Xrotation Zrotation
  JOINT RightKnee
  {
   OFFSET 0.000000 -40.869800 0.001200
   CHANNELS 3 Yrotation Xrotation Zrotation
   JOINT RightAnkle
   {
    OFFSET 0.000000 -39.717900 0.002100
    CHANNELS 3 Yrotation Xrotation Zrotation
    JOINT RightToe
    {
     OFFSET 0.000000 -4.965400 11.033500
     CHANNELS 3 Yrotation Xrotation Zrotation
     End Site
     {
      OFFSET 0.000000 -1.423100 5.872300
     }
    }
   }
  }
 }
 JOINT LeftHip
 {
  OFFSET 7.771700 -0.012900 -0.001300
  CHANNELS 3 Yrotation Xrotation Zrotation
  JOINT LeftKnee
  {
   OFFSET 0.000000 -40.869800 0.001200
   CHANNELS 3 Yrotation Xrotation Zrotation
   JOINT LeftAnkle
   {
    OFFSET 0.000000 -39.717900 0.002100
    CHANNELS 3 Yrotation Xrotation Zrotation
    JOINT LeftToe
    {
     OFFSET 0.000000 -4.965400 11.033500
     CHANNELS 3 Yrotation Xrotation Zrotation
     End Site
     {
      OFFSET 0.000000 -1.423100 5.872300
     }
    }
   }
  }
 }
}
MOTION
Frames: 13
Frame Time: 0.008333
-29.369840 57.650690 91.388627 -170.276132 -52.132573 8.256771 -4.074531 25.169973 -2.884682 -0.507510 4.174548 -0.375278 -0.823789 6.653481 -0.616992 -2.956844 21.005808 -2.366934 2.237135 22.342056 -15.767307 7.975207 7.534503 -29.024065 5.011903 -1.710155 -1.404977 36.558889 -41.199883 -25.294375 131.764105 -61.416098 -104.176665 14.690873 8.943409 -10.094147 -6.199011 4.397429 1.910092 32.624288 -16.563883 -2.665311 -133.537912 -51.950491 144.715743 -20.033658 4.629511 23.216414 5.991761 -20.165282 -19.408017 -11.976180 81.313772 -8.565371 -2.263349 -3.975688 2.046734 -0.026715 -0.125481 0.065115 -10.164488 -25.605636 -22.727001 50.833668 74.093713 42.219918 -11.873317 -6.064640 -0.178697 0.006457 -0.457952 0.139965
-29.332011 57.648220 91.374693 -170.334730 -52.207739 8.486454 -3.999855 25.243543 -2.946157 -0.495907 4.198888 -0.387349 -0.805455 6.689910 -0.635774 -2.896418 21.055134 -2.413837 2.240144 22.278100 -15.879681 8.018565 7.440331 -29.234898 5.048629 -1.752925 -1.316202 36.835971 -41.337187 -25.333982 130.954584 -61.254386 -103.559224 14.583338 8.903910 -10.214027 -6.394489 4.411353 1.811273 32.846561 -16.929151 -2.640578 -133.325105 -52.047498 144.728636 -20.034303 4.672754 23.124474 6.023093 -20.157884 -19.487607 -12.217897 81.415900 -8.948064 -2.295245 -3.909926 2.076364 -0.029724 -0.210375 0.075934 -10.139075 -25.534437 -22.767688 50.697050 74.093617 41.940203 -11.980122 -6.050013 -0.169659 0.050539 -0.465321 0.143575
-29.295665 57.651202 91.364329 -170.382135 -52.284825 8.699448 -3.926097 25.325691 -3.004946 -0.483746 4.225759 -0.398280 -0.786209 6.730121 -0.652724 -2.831802 21.109800 -2.453399 2.233227 22.212763 -15.950298 8.035750 7.333117 -29.368363 5.026303 -1.809341 -1.238828 37.016253 -41.405389 -25.318874 130.290727 -61.081582 -103.088577 14.473949 8.850489 -10.395284 -6.595370 4.403682 1.730467 32.999390 -17.264290 -2.629304 -133.134604 -52.054279 144.698363 -20.051386 4.698622 23.045004 6.009525 -20.156447 -19.533309 -12.477918 81.501495 -9.399121 -2.344858 -3.820207 2.129736 -0.010450 -0.272052 0.071537 -10.105972 -25.453034 -22.819195 50.552068 74.078555 41.673468 -12.070334 -6.017044 -0.167685 0.087643 -0.481396 0.145623
-29.261774 57.658695 91.359039 -170.414533 -52.354225 8.894093 -3.860834 25.404722 -3.065310 -0.471550 4.253209 -0.408243 -0.766888 6.771179 -0.667998 -2.766421 21.165491 -2.487076 2.219441 22.150182 -15.981652 8.031854 7.221558 -29.429018 4.952470 -1.867653 -1.172265 37.072281 -41.417554 -25.234000 129.802792 -60.891361 -102.761274 14.369653 8.763985 -10.605997 -6.788452 4.382528 1.677530 33.068678 -17.553108 -2.640985 -132.946829 -51.983636 144.619528 -20.078900 4.717777 22.976473 5.954521 -20.169602 -19.549538 -13.566187 81.547391 -10.717224 -2.292256 -3.709400 2.208731 0.002711 -0.331040 0.060419 -10.064661 -25.369968 -22.880352 50.380262 74.052517 41.404423 -12.173225 -5.986763 -0.143992 0.132268 -0.484069 0.136543
-29.228551 57.670197 91.358305 -170.445011 -52.414275 9.064048 -3.800522 25.480213 -3.111693 -0.460969 4.279405 -0.417084 -0.750154 6.810389 -0.681575 -2.709421 21.218009 -2.516363 2.203638 22.092621 -15.980495 7.992823 7.125039 -29.423074 4.844692 -1.921563 -1.123970 36.984987 -41.386824 -25.064928 129.514351 -60.688526 -102.563378 14.275259 8.633455 -10.817703 -6.955141 4.351595 1.649688 33.045001 -17.778414 -2.678384 -132.761964 -51.854629 144.509103 -20.107553 4.729193 22.929846 5.865590 -20.194823 -19.554256 -14.801448 81.566142 -12.176786 -2.209299 -3.584119 2.269209 -0.010768 -0.306573 0.040280 -10.012820 -25.283163 -22.935614 50.188619 74.018087 41.137905 -12.219932 -5.952902 -0.139113 0.125647 -0.485029 0.145759
-29.198043 57.685052 91.362648 -170.477564 -52.463525 9.220387 -3.797065 25.535704 -3.203298 -0.416522 4.313600 -0.391558 -0.738773 6.844625 -0.693112 -2.670190 21.262942 -2.541997 2.188800 22.043752 -15.954607 7.907988 7.062502 -29.385239 4.725333 -1.968265 -1.103498 36.754433 -41.314855 -24.815687 129.426695 -60.484995 -102.477834 14.186132 8.454792 -11.027227 -7.084815 4.300090 1.645567 32.933793 -17.907156 -2.743113 -132.602282 -51.689984 144.387694 -20.127840 4.733832 22.918050 5.754937 -20.230155 -19.551533 -15.979674 81.563653 -13.581471 -2.129175 -3.454024 2.323951 -0.019636 -0.310196 0.024796 -9.947154 -25.193393 -22.986337 49.959040 73.977999 40.856233 -12.286112 -5.929530 -0.113714 0.141299 -0.472793 0.138356
-29.171901 57.715817 91.361416 -170.385258 -52.618578 9.257445 -3.890244 25.685031 -3.286104 -0.399372 4.343071 -0.363745 -0.758523 6.841165 -0.725683 -2.621254 21.328617 -2.544736 2.177237 22.006627 -15.908362 7.955531 6.944764 -29.324146 4.607164 -2.005869 -1.110121 36.421625 -41.191191 -24.518737 129.501532 -60.285431 -102.484457 14.091076 8.228122 -11.250779 -7.173773 4.222807 1.659444 32.748397 -17.920796 -2.833281 -132.501969 -51.517516 144.275686 -20.134624 4.734739 22.945292 5.494585 -20.074140 -19.515947 -16.899397 81.461307 -14.734528 -2.022400 -3.490551 2.403315 -0.056808 -0.177455 -0.006334 -9.960857 -25.001111 -23.046686 49.695445 73.935749 40.558672 -12.342888 -5.910781 -0.092673 0.152108 -0.457851 0.135985
-29.146668 57.735459 91.373594 -170.410367 -52.658951 9.362803 -3.860092 25.761360 -3.244163 -0.447280 4.324408 -0.446734 -0.744415 6.857181 -0.728560 -2.633863 21.370276 -2.542899 2.171994 21.982345 -15.842953 7.953959 6.876645 -29.187478 4.497520 -2.032929 -1.139009 36.035661 -41.009248 -24.211797 129.684924 -60.092414 -102.558197 13.981020 7.948598 -11.514470 -7.185721 4.203940 1.618650 32.472394 -17.928361 -2.931044 -132.493838 -51.368011 144.188013 -20.124730 4.724000 23.015516 5.350121 -20.096052 -19.480834 -17.858464 81.408620 -15.908211 -1.949470 -3.390727 2.454202 -0.061112 -0.154575 -0.021413 -9.894757 -24.901030 -23.073504 49.395149 73.896765 40.238573 -12.378496 -5.912023 -0.072653 0.155601 -0.426394 0.133942
-29.125100 57.754977 91.389853 -170.444584 -52.688146 9.455631 -3.895875 25.806980 -3.262523 -0.427915 4.321508 -0.485815 -0.734073 6.892879 -0.710175 -2.712755 21.362907 -2.557960 2.175012 21.971746 -15.759092 7.943202 6.841987 -29.038433 4.408117 -2.046329 -1.186661 35.616224 -40.770236 -23.919032 129.944309 -59.910913 -102.688282 13.856850 7.614976 -11.836192 -7.147545 4.193569 1.612703 32.168510 -17.842624 -3.087908 -132.598911 -51.259628 144.124113 -20.099423 4.683543 23.139097 5.217300 -20.121467 -19.442869 -18.656997 81.347629 -16.897115 -1.886296 -3.298946 2.493251 -0.061821 -0.121399 -0.033148 -9.826807 -24.808970 -23.088161 49.057552 73.865157 39.886836 -12.389317 -5.912274 -0.044295 0.142323 -0.390660 0.132387
-29.107590 57.773170 91.409850 -170.482793 -52.706375 9.533476 -3.956801 25.828922 -3.299092 -0.453704 4.340972 -0.451405 -0.695666 6.900664 -0.748386 -2.815354 21.338594 -2.578763 2.184367 21.976239 -15.656166 7.936089 6.832773 -28.854857 4.340894 -2.043231 -1.247635 35.164686 -40.481241 -23.651615 130.266280 -59.746214 -102.873480 13.727921 7.232589 -12.215658 -7.086645 4.158103 1.587933 31.843652 -17.671274 -3.233907 -132.820132 -51.192245 144.077463 -20.069538 4.608427 23.312803 5.100877 -20.149168 -19.408522 -19.244281 81.286087 -17.642079 -1.838171 -3.220364 2.517351 -0.058380 -0.079116 -0.041156 -9.765662 -24.728915 -23.090112 48.674758 73.847331 39.487751 -12.363557 -5.919017 -0.006894 0.122876 -0.348633 0.124528
-29.095074 57.791276 91.431681 -170.583535 -52.724307 9.648285 -4.002730 25.847785 -3.343704 -0.484083 4.340240 -0.444226 -0.761140 6.902603 -0.734251 -2.846821 21.315927 -2.638859 2.195945 21.995303 -15.532539 7.925145 6.846747 -28.632728 4.291207 -2.024369 -1.316477 34.683501 -40.152119 -23.413731 130.632124 -59.593501 -103.100314 13.592026 6.812537 -12.646073 -7.002237 4.132370 1.561849 31.495461 -17.453173 -3.396009 -133.134289 -51.155550 144.030211 -20.047225 4.508817 23.514116 5.098094 -20.140200 -19.407610 -19.629491 81.229165 -18.087596 -1.808422 -3.138439 2.522369 -0.048611 -0.049804 -0.044056 -9.675460 -24.645768 -23.086657 48.255092 73.844797 39.046023 -12.291628 -5.971608 0.039854 0.074713 -0.270961 0.105860
-29.084682 57.805923 91.455865 -170.640697 -52.735415 9.703002 -4.082566 25.846087 -3.377966 -0.500729 4.334622 -0.445364 -0.814028 6.891962 -0.727715 -2.912680 21.298637 -2.671802 2.205291 22.027150 -15.388002 7.902789 6.879711 -28.370787 4.256571 -1.990010 -1.394096 34.181094 -39.790644 -23.202019 131.011567 -59.439665 -103.348983 13.443048 6.369551 -13.120186 -6.895932 4.115139 1.536492 31.114184 -17.208081 -3.569039 -133.504427 -51.135844 143.953327 -20.039047 4.394137 23.719384 5.006274 -20.165634 -19.364969 -19.783998 81.181288 -18.354894 -1.793410 -3.087611 2.516499 -0.038434 -0.003067 -0.040635 -9.622897 -24.575173 -23.059111 47.828239 73.854374 38.591615 -12.212838 -5.983715 0.098479 0.047285 -0.240467 0.082295
-29.072698 57.817180 91.480076 -170.679942 -52.745442 9.699752 -4.166261 25.830969 -3.378297 -0.519267 4.327394 -0.445294 -0.843576 6.880858 -0.728341 -3.009218 21.276412 -2.687264 2.208616 22.070349 -15.222291 7.862685 6.928122 -28.067802 4.227648 -1.935636 -1.482096 33.675728 -39.404854 -23.011973 131.379729 -59.289714 -103.612315 13.292428 5.906092 -13.622930 -6.776049 4.107273 1.509552 30.697354 -16.954437 -3.742734 -133.901032 -51.120112 143.823458 -20.047413 4.270674 23.920992 4.931270 -20.183056 -19.299134 -19.780513 81.141699 -18.410776 -1.786292 -3.041669 2.491167 -0.028165 0.013270 -0.033965 -9.608383 -24.528672 -23.003304 47.602292 73.859497 38.351924 -12.158604 -5.999163 0.127877 0.008312 -0.227564 0.060953
